<svg xmlns="http://www.w3.org/2000/svg" viewBox="0 0 780 500" height="500" width="780">
  <rect width="780" height="500" fill="#016fd0"/>
  <path d="M240,220l40,0l5,-15l6,15l80,0l0,-10l10,0c5,0 10,0 10,10l0,0l0,30l-10,0c-5,0 -10,0 -15,-10l-15,0l0,10l-80,0l-6,-15l-5,15l-50,0l0,-40l0,0l30,0" fill="white"/>
  <path d="M132,250l49,0l5,-15l5,15l23,0l0,-40l35,0l0,10c0,0 10,0 15,-10l40,0l0,10l5,0c0,0 10,0 10,10l0,20l-10,0c0,0 -10,0 -15,-10l-15,0l0,10l-50,0l0,-10l0,10l-25,0l-6,-15l-6,15l-60,0l0,-15l0,15l0,0" fill="white"/>
  <path d="M370,250l30,0l0,-40l-30,0l0,40z" fill="white"/>
  <path d="M450,250l50,0l5,-15l5,15l60,0l0,-15l10,15l45,0l10,-15l0,15l50,0l0,-40l-50,0l-10,15l0,-15l-60,0l-5,15l-5,-15l-60,0l0,40l0,0" fill="white"/>
  <path d="M240,290l40,0l5,-15l5,15l80,0l0,-10l10,0c5,0 10,0 10,10l0,0l0,30l-10,0c-5,0 -10,0 -15,-10l-15,0l0,10l-80,0l-5,-15l-5,15l-50,0l0,-30l0,-10l30,0" fill="white"/>
  <path d="M132,290l49,0l5,-15l5,15l23,0l0,-40l35,0l0,10c0,0 10,0 15,-10l40,0l0,10l5,0c0,0 10,0 10,10l0,20l-10,0c0,0 -10,0 -15,-10l-15,0l0,10l-50,0l0,-10l0,10l-25,0l-5,-15l-5,15l-60,0l0,-15l0,15l0,0" fill="white"/>
  <path d="M370,290l30,0l0,-40l-30,0l0,40z" fill="white"/>
  <path d="M450,290l50,0l5,-15l5,15l60,0l0,-15l10,15l45,0l10,-15l0,15l50,0l0,-40l-50,0l-10,15l0,-15l-60,0l-5,15l-5,-15l-60,0l0,40l0,0" fill="white"/>
</svg> 