<svg xmlns="http://www.w3.org/2000/svg" viewBox="0 0 780 500" height="500" width="780">
  <rect width="780" height="500" fill="#0066b2"/>
  <polygon points="293.2,348.8 341.2,148.1 406.3,148.1 358.3,348.8" fill="#fff"/>
  <path d="M446.9,155.6c-11.4-4.3-29.2-8.9-51.3-8.9c-56.6,0-96.4,28.5-96.7,69.4c-0.5,30.2,28.5,47.1,50.2,57.2
    c22.2,10.3,29.6,17,29.6,26.2c-0.2,14.2-17.8,20.7-34.2,20.7c-22.8,0-35-3.2-53.6-10.9l-7.3-3.3l-8.1,47.1
    c13.5,5.9,38.3,10.9,64.2,11.2c60.5,0,99.8-28.2,100.3-71.8c0.2-24-15.2-42.1-48.5-57.2c-20.2-9.8-32.5-16.2-32.5-26
    c0-8.7,10.4-18.1,32.8-18.1c18.6-0.3,32.1,3.7,42.5,8l5.2,2.4L446.9,155.6" fill="#fff"/>
  <path d="M538.6,250.9c4.8-13,23.4-63.6,23.4-63.6s4.8-13,7.9-21.5l4,18.9c0,0,11.3,51.7,13.6,62.2
    c-9.3,0-37.5,0.1-48.1,0.1h-0.8L538.6,250.9z M583.9,148.1h-43.7c-13.5,0-23.7,3.7-29.6,17.3l-84,183.5h59.6h0l11.8-30.9h72
    c1.6,7.2,6.7,30.9,6.7,30.9h52.7L583.9,148.1" fill="#fff"/>
  <path d="M145,148.1l-55.8,142.3l-6-28.9c-10.3-33.3-42.6-69.2-78.6-87.3l50.8,182.8h60L195,148.1H145" fill="#fff"/>
  <path d="M82.1,148.1H0.5l-0.5,2.9c63.5,15.4,105.4,52.6,122.7,97.4l-17.7-85.2C101.8,151.3,93,148.4,82.1,148.1" fill="#f9a51a"/>
</svg> 