<?xml version="1.0" encoding="UTF-8" standalone="no"?>
<svg width="100" height="60" viewBox="0 0 100 60" fill="none" xmlns="http://www.w3.org/2000/svg">
  <rect width="100" height="60" rx="5" fill="white"/>
  <path d="M62.928 18H37.072V42H62.928V18Z" fill="white"/>
  <path d="M38.748 30C38.748 25.23 41.178 21.04 44.884 18.45C42.256 16.41 38.988 15.23 35.498 15.23C26.828 15.23 19.998 21.84 19.998 30C19.998 38.16 26.828 44.77 35.498 44.77C38.988 44.77 42.256 43.59 44.884 41.55C41.178 38.96 38.748 34.77 38.748 30Z" fill="#EB001B"/>
  <path d="M79.998 30C79.998 38.16 73.168 44.77 64.498 44.77C61.008 44.77 57.748 43.59 55.118 41.55C58.828 38.96 61.248 34.77 61.248 30C61.248 25.23 58.828 21.04 55.118 18.45C57.748 16.41 61.008 15.23 64.498 15.23C73.168 15.23 79.998 21.84 79.998 30Z" fill="#F79E1B"/>
  <path d="M55.114 18.45C58.824 21.04 61.244 25.23 61.244 30C61.244 34.77 58.824 38.96 55.114 41.55C51.404 38.96 48.984 34.77 48.984 30C48.984 25.23 51.394 21.04 55.114 18.45Z" fill="#FF5F00"/>
</svg> 