<?xml version="1.0" encoding="UTF-8" standalone="no"?>
<svg width="100" height="60" viewBox="0 0 100 60" fill="none" xmlns="http://www.w3.org/2000/svg">
  <rect width="100" height="60" rx="5" fill="white"/>
  <path d="M41.666 39.270H35.445L39.378 20.734H45.599L41.666 39.270Z" fill="#00579F"/>
  <path d="M64.165 21.100C62.91 20.641 60.9 20.143 58.463 20.143C52.59 20.143 48.497 23.084 48.473 27.358C48.427 30.416 51.403 32.138 53.633 33.166C55.91 34.211 56.64 34.893 56.628 35.836C56.61 37.29 54.79 37.949 53.096 37.949C50.74 37.949 49.48 37.617 47.54 36.783L46.703 36.416L45.816 41.656C47.29 42.298 50.031 42.87 52.89 42.889C59.153 42.889 63.176 39.988 63.216 35.43C63.233 32.991 61.616 31.112 58.279 29.587C56.255 28.602 55.03 27.94 55.046 26.932C55.046 26.031 56.066 25.068 58.243 25.068C60.041 25.03 61.355 25.464 62.376 25.894L62.966 26.164L63.836 21.091L64.165 21.100Z" fill="#00579F"/>
  <path d="M72.777 33.089C73.317 31.758 75.573 26.086 75.573 26.086C75.54 26.147 76.053 24.945 76.343 24.208L76.764 25.933C76.764 25.933 78.156 31.908 78.423 33.089C77.526 33.089 73.883 33.089 72.777 33.089ZM81.713 20.734H77.087C75.783 20.734 74.794 21.07 74.171 22.465L65.603 39.269H71.837C71.837 39.269 73.077 36.28 73.317 35.701C73.976 35.701 79.8 35.701 80.643 35.701C80.826 36.441 81.483 39.269 81.483 39.269H87.06L81.713 20.734Z" fill="#00579F"/>
  <path d="M31.977 20.734L26.203 33.656L25.593 30.651C24.563 27.45 21.73 23.971 18.57 22.145L23.876 39.254H30.16L39.237 20.734H31.977Z" fill="#00579F"/>
  <path d="M22.257 20.734H12.683L12.576 21.22C19.536 22.863 24.13 26.33 25.59 30.651L23.573 22.482C23.223 21.111 22.333 20.788 21.223 20.734H22.257Z" fill="#FAA61A"/>
</svg> 