<?xml version="1.0" encoding="UTF-8" standalone="no"?>
<svg width="100" height="60" viewBox="0 0 100 60" fill="none" xmlns="http://www.w3.org/2000/svg">
  <rect width="100" height="60" rx="5" fill="white"/>
  <path d="M45.6763 26.5211C45.5155 27.6519 44.6449 27.6519 43.7957 27.6519H43.2476L43.6149 25.2916C43.6365 25.1739 43.7421 25.0884 43.8654 25.0884H44.1111C44.6665 25.0884 45.1999 25.0884 45.4799 25.3979C45.6407 25.5688 45.7103 25.9212 45.6763 26.5211ZM45.1999 21.8266H41.1603C40.7779 21.8266 40.4463 22.0947 40.3781 22.4824L38.0862 36.791C38.0366 37.059 38.2258 37.3055 38.4933 37.3055H40.4606C40.843 37.3055 41.1746 37.0375 41.2428 36.6498L41.8405 32.9673C41.9087 32.5796 42.2403 32.3116 42.6227 32.3116H44.0388C47.0727 32.3116 48.6935 30.8658 49.1086 28.0048C49.292 26.7573 49.1229 25.7908 48.5606 25.1056C47.9322 24.3492 46.7537 21.8266 45.1999 21.8266Z" fill="#253B80"/>
  <path d="M55.8975 26.4548C55.7367 27.5855 54.8661 27.5855 54.017 27.5855H53.4689L53.8361 25.2252C53.8577 25.1075 53.9634 25.0221 54.0867 25.0221H54.3324C54.8878 25.0221 55.4211 25.0221 55.7011 25.3315C55.862 25.5025 55.9315 25.8549 55.8975 26.4548ZM55.4211 21.7598H51.3815C50.9991 21.7598 50.6675 22.0279 50.5993 22.4156L48.3074 36.7242C48.2578 36.9923 48.447 37.2387 48.7145 37.2387H50.812C51.0827 37.2387 51.3105 37.034 51.355 36.7645L51.9671 33.0105C52.0353 32.6228 52.3669 32.3547 52.7493 32.3547H54.1654C57.1994 32.3547 58.8201 30.9089 59.2352 28.0479C59.4186 26.8005 59.2496 25.834 58.6872 25.1488C58.0588 24.3924 56.8804 21.7598 55.4211 21.7598Z" fill="#179BD7"/>
  <path d="M35.2748 26.4548C35.114 27.5855 34.2434 27.5855 33.3943 27.5855H32.8462L33.2135 25.2252C33.235 25.1075 33.3407 25.0221 33.464 25.0221H33.7097C34.2651 25.0221 34.7984 25.0221 35.0784 25.3315C35.2392 25.5025 35.3088 25.8549 35.2748 26.4548ZM34.8038 21.7598H30.7589C30.3765 21.7598 30.0448 22.0279 29.9767 22.4156L27.6847 36.7242C27.6351 36.9923 27.8243 37.2387 28.0918 37.2387H29.9984C30.3808 37.2387 30.7124 36.9706 30.7806 36.5829L31.3783 32.9004C31.4465 32.5127 31.7781 32.2447 32.1605 32.2447H33.5766C36.6106 32.2447 38.2313 30.7989 38.6464 27.9379C38.8298 26.6904 38.6608 25.724 38.0984 25.0388C37.4563 24.2824 36.2778 21.7598 34.8038 21.7598Z" fill="#253B80"/>
</svg> 