<?xml version="1.0" encoding="UTF-8" standalone="no"?>
<svg width="100" height="60" viewBox="0 0 100 60" fill="none" xmlns="http://www.w3.org/2000/svg">
  <rect width="100" height="60" rx="5" fill="white"/>
  <path d="M86.667 43.333H13.333C11.5 43.333 10 41.8335 10 40.0001V20.0001C10 18.1668 11.5 16.6668 13.333 16.6668H86.667C88.5 16.6668 90 18.1668 90 20.0001V40.0001C90 41.8335 88.5 43.333 86.667 43.333Z" fill="#016FD0"/>
  <path d="M35.417 26.6667L32.083 33.3334H38.75L35.417 26.6667Z" fill="white"/>
  <path d="M35.417 33.3334H32.083L30.417 38.3334H26.667L32.083 21.6667H38.75L44.167 38.3334H40.417L38.75 33.3334H35.417Z" fill="white"/>
  <path d="M45.833 38.3334H53.333V35.0001H47.5V32.5001H53.333V29.1667H47.5V26.6667H53.333V23.3334H45.833V38.3334Z" fill="white"/>
  <path d="M65 33.3334L70.417 21.6667H75V38.3334H71.25V26.6667L65.833 38.3334H64.167L58.75 26.6667V38.3334H55V21.6667H59.583L65 33.3334Z" fill="white"/>
</svg> 